HIERARCHY
ROOT Hips
{
	OFFSET 0.000000 0.000000 0.000000 
	CHANNELS 6 Xposition Yposition Zposition Zrotation Yrotation Xrotation
	JOINT LeftUpLeg
	{
		OFFSET 1.363060 -1.794630 0.839290 
		CHANNELS 3 Zrotation Yrotation Xrotation
		JOINT LeftLeg
		{
			OFFSET 2.448110 -6.726130 0.000000 
			CHANNELS 3 Zrotation Yrotation Xrotation
			JOINT LeftFoot
			{
				OFFSET 2.562200 -7.039590 0.000000 
				CHANNELS 3 Zrotation Yrotation Xrotation
				JOINT LeftToeBase
				{
					OFFSET 0.157640 -0.433110 2.322550 
					CHANNELS 3 Zrotation Yrotation Xrotation
					End Site
					{
						OFFSET 0.000000 0.000000 0.000000 
					}
				}
			}
		}
	}
	JOINT RightUpLeg
	{
		OFFSET -1.305520 -1.794630 0.839290 
		CHANNELS 3 Zrotation Yrotation Xrotation
		JOINT RightLeg
		{
			OFFSET -2.542530 -6.985550 0.000000 
			CHANNELS 3 Zrotation Yrotation Xrotation
			JOINT RightFoot
			{
				OFFSET -2.568260 -7.056230 0.000000 
				CHANNELS 3 Zrotation Yrotation Xrotation
				JOINT RightToeBase
				{
					OFFSET -0.164730 -0.452590 2.363150 
					CHANNELS 3 Zrotation Yrotation Xrotation
					End Site
					{
						OFFSET 0.000000 0.000000 0.000000 
					}
				}
			}
		}
	}
	JOINT Spine
	{
		OFFSET 0.028270 2.035590 -0.193380 
		CHANNELS 3 Zrotation Yrotation Xrotation
		JOINT Spine1
		{
			OFFSET 0.056720 2.048850 -0.042750 
			CHANNELS 3 Zrotation Yrotation Xrotation
			JOINT Neck1
			{
				OFFSET -0.054170 1.746240 0.172020 
				CHANNELS 3 Zrotation Yrotation Xrotation
				JOINT Head
				{
					OFFSET 0.104070 1.761360 -0.123970 
					CHANNELS 3 Zrotation Yrotation Xrotation
					End Site
					{
						OFFSET 0.000000 0.000000 0.000000 
					}
				}
			}
			JOINT LeftArm
			{
				OFFSET 3.362410 1.200890 -0.311210 
				CHANNELS 3 Zrotation Yrotation Xrotation
				JOINT LeftForeArm
				{
					OFFSET 4.983000 -0.000000 -0.000000 
					CHANNELS 3 Zrotation Yrotation Xrotation
					JOINT LeftHand
					{
						OFFSET 3.483560 -0.000000 -0.000000 
						CHANNELS 3 Zrotation Yrotation Xrotation
						JOINT LeftHandIndex1
						{
							OFFSET 0.715260 -0.000000 -0.000000 
							CHANNELS 3 Zrotation Yrotation Xrotation
							End Site
							{
								OFFSET 0.000000 0.000000 0.000000 
							}
						}
					}
				}
			}
			JOINT RightArm
			{
				OFFSET -3.136600 1.374050 -0.404650 
				CHANNELS 3 Zrotation Yrotation Xrotation
				JOINT RightForeArm
				{
					OFFSET -5.241900 -0.000000 -0.000000 
					CHANNELS 3 Zrotation Yrotation Xrotation
					JOINT RightHand
					{
						OFFSET -3.444170 -0.000000 -0.000000 
						CHANNELS 3 Zrotation Yrotation Xrotation
						JOINT RightHandIndex1
						{
							OFFSET -0.622530 -0.000000 -0.000000 
							CHANNELS 3 Zrotation Yrotation Xrotation
							End Site
							{
								OFFSET 0.000000 0.000000 0.000000 
							}
						}
					}
				}
			}
		}
	}
}
MOTION
Frames: 9
Frame Time: 0.041667
22.919720 17.948028 14.416809 -0.490363 -22.598780 3.305225 -11.066267 -8.299297 -23.953808 2.087191 7.330280 21.406609 0.821204 2.448447 -16.417304 0.052000 1.470900 4.045500 24.361182 -5.286729 3.707412 -1.270523 -5.754501 16.187760 -0.427513 -16.155496 -21.109844 -4.301900 -12.551700 37.712600 2.534239 1.879746 5.197233 1.149877 0.948013 -4.267045 -8.470089 3.020292 17.387696 -1.778300 0.606400 6.655400 -88.666746 -1.838878 10.830719 10.934987 -17.776668 -1.597179 0.226148 -0.041913 4.875066 -7.125000 0.000000 0.000000 80.127297 8.197846 9.386381 -11.263814 18.409230 -1.691102 -0.288441 -0.403422 -7.324969 7.125000 0.000000 0.000000 
22.941195 17.936252 14.476384 -0.609109 -22.269042 3.559532 -10.786289 -8.489898 -23.945306 2.020791 7.156169 20.873700 0.857254 3.463430 -16.760636 0.064400 1.637600 4.505100 24.371490 -5.396842 3.564261 -1.291035 -5.826353 16.393924 -0.449058 -16.150141 -21.352641 -4.265400 -12.505400 37.544300 2.482781 1.926149 5.016113 1.080945 0.968524 -4.385428 -8.165129 2.985793 17.549329 -1.653300 0.595600 6.692300 -88.672793 -1.685370 9.328312 10.574911 -17.214101 -1.491531 0.233057 -0.051517 5.449307 -7.125000 0.000000 0.000000 80.190955 7.883852 9.768950 -11.768561 19.185662 -1.848097 -0.280219 -0.405212 -7.553157 7.125000 0.000000 0.000000 
22.947726 17.926355 14.546646 -0.659720 -21.910043 3.353836 -10.643443 -8.669164 -23.598641 2.011987 7.131092 20.798188 0.922836 4.273486 -17.530153 0.082400 1.851800 5.096400 24.211938 -6.053678 4.124493 -1.235662 -5.668527 15.927519 -0.418704 -16.200319 -21.090199 -4.175500 -12.390400 37.127300 2.396953 1.919517 5.046909 1.084530 0.965136 -4.430514 -8.123500 3.048923 17.846825 -1.644300 0.618400 6.802000 -88.671206 -1.380718 7.820788 10.408241 -16.952495 -1.443927 0.240164 -0.048224 6.220117 -7.125000 0.000000 0.000000 80.187164 8.122571 10.065786 -11.635897 18.985533 -1.807664 -0.279044 -0.397030 -7.348526 7.125000 0.000000 0.000000 
22.950695 17.910621 14.631752 -0.870041 -21.496379 2.995971 -10.430826 -8.674407 -23.002889 1.998210 7.090155 20.675250 0.993614 4.827941 -18.356832 0.163100 2.601800 7.172100 24.287996 -6.368713 4.975416 -1.197145 -5.560169 15.610536 -0.373411 -16.612966 -21.170160 -4.098400 -12.290200 36.766500 2.297614 1.945332 5.236485 0.949554 0.975917 -4.284685 -8.504037 3.190386 17.942934 -1.821600 0.680300 6.831900 -88.469134 -1.135986 7.034314 10.260751 -16.714738 -1.402714 0.243363 -0.036879 6.685138 -7.125000 0.000000 0.000000 80.414761 8.078437 10.137121 -11.858591 19.330243 -1.879028 -0.275178 -0.397498 -7.052589 7.125000 0.000000 0.000000 
22.963263 17.897954 14.722202 -1.098194 -20.976536 2.721060 -10.270974 -8.556250 -22.609901 1.997568 7.086024 20.667429 1.032536 5.291937 -18.829991 0.210900 2.956800 8.158500 24.423888 -6.471722 5.903709 -1.152650 -5.418073 15.194804 -0.341605 -17.093837 -21.529837 -4.112900 -12.309100 36.834400 2.304929 1.927428 5.411258 0.836395 0.965441 -4.104045 -8.109350 2.852706 17.618487 -1.665200 0.543200 6.674500 -88.475420 -0.975732 5.942134 10.042065 -16.370057 -1.342814 0.241962 -0.034630 7.189839 -7.125000 0.000000 0.000000 80.385236 8.284462 10.365467 -11.912573 19.410326 -1.896005 -0.281106 -0.394875 -7.077266 7.125000 0.000000 0.000000 
23.046192 17.913590 14.745557 -1.139955 -20.334361 4.090975 -10.017747 -9.111717 -24.133072 1.999535 7.106891 20.717513 1.034441 6.083844 -19.008958 0.180100 2.733500 7.537700 24.580318 -6.071376 4.988674 -1.130130 -5.303084 14.859351 -0.296978 -17.539616 -21.606884 -4.076100 -12.261000 36.661700 2.088188 1.831182 4.762362 0.378632 0.897032 -4.385771 -8.124733 2.877061 17.213876 -1.646900 0.570500 6.496200 -88.539099 -0.889678 4.604987 9.883570 -16.126139 -1.300115 0.235816 -0.034518 7.875639 -7.125000 0.000000 0.000000 80.249791 8.714874 10.713323 -11.901296 19.389814 -1.891611 -0.283466 -0.384102 -7.418371 7.125000 0.000000 0.000000 
23.070932 17.902803 14.831257 -1.120613 -19.853519 4.117245 -10.142518 -9.114477 -24.102805 1.992674 7.087720 20.659520 1.030317 6.798642 -19.147748 0.107500 2.113900 5.820500 24.453356 -6.322690 5.240075 -1.110928 -5.251984 14.711828 -0.211931 -18.063023 -21.402301 -3.871600 -11.987600 35.688200 1.964165 1.781529 4.824281 0.287664 0.871480 -4.187341 -8.619949 3.200937 17.220116 -1.828700 0.710600 6.501400 -88.519667 -0.666816 3.980924 9.836217 -16.045405 -1.286821 0.231609 -0.031904 8.034934 -7.125000 0.000000 0.000000 80.170888 9.069186 11.216378 -11.918161 19.415879 -1.897547 -0.276533 -0.383179 -7.958007 7.125000 0.000000 0.000000 
23.099235 17.892709 14.912900 -1.115980 -19.553395 4.152632 -10.325135 -8.874557 -24.038393 1.974720 7.037381 20.506461 1.020550 7.438533 -19.238191 0.057400 1.546200 4.253100 24.235883 -6.727117 5.259021 -1.109295 -5.270042 14.763149 -0.156930 -18.268339 -21.050070 -3.669900 -11.707700 34.705600 1.895940 1.842712 4.711611 0.219119 0.898585 -4.261864 -8.124659 2.829995 17.358155 -1.637100 0.537600 6.528200 -88.593349 -0.134674 3.687808 9.903698 -16.149899 -1.304699 0.223558 -0.028973 7.871359 -7.125000 0.000000 0.000000 80.075946 9.006808 11.804803 -12.134720 19.740768 -1.966188 -0.271480 -0.390479 -8.379945 7.125000 0.000000 0.000000 
23.128132 17.888849 14.994542 -1.112719 -19.187484 4.185422 -10.677034 -8.026499 -24.185765 1.962129 6.998409 20.394188 1.001288 7.476237 -19.029853 0.037700 1.253900 3.447700 24.040537 -6.874057 5.512851 -1.103392 -5.252831 14.705646 -0.207973 -18.145063 -21.482291 -3.769300 -11.847000 35.192800 1.805144 1.902573 4.584196 0.145199 0.923709 -4.386357 -8.101809 2.678408 17.401073 -1.643000 0.465600 6.534300 -88.596485 0.290067 3.391901 9.926168 -16.180957 -1.310137 0.215509 -0.023963 7.669923 -7.125000 0.000000 0.000000 80.011521 8.907999 12.116563 -12.451178 20.218564 -2.068939 -0.262408 -0.401349 -8.272593 7.125000 0.000000 0.000000 
